# xmcd
#
# Track frame offsets: 
#        150
#        17065
#        42826
#        62696
#        90222
#        108182
#        131374
#        147172
#        170435
#        187447
#        212151
#
# Disc length: 3102 seconds
#
# Revision: 8
# Processed by: cddbd v1.5.2PL0 Copyright (c) Steve Scherf et al.
# Submitted via: ExactAudioCopy v0.99pb5
#
DISCID=930c1c0b
DTITLE=Solomon Burke - Don't Give Up On Me
DYEAR=2002
DGENRE=R&B
TTITLE0=Don't Give Up On Me
TTITLE1=Fast Train
TTITLE2=Diamond In Your Mind
TTITLE3=Flesh And Blood
TTITLE4=Soul Searchin'
TTITLE5=Only A Dream
TTITLE6=The Judgement
TTITLE7=Stepchild
TTITLE8=The Other Side Of The Coin
TTITLE9=None Of Us Are Free
TTITLE10=Sit This One Out
EXTD=YEAR: 2002
EXTT0=
EXTT1=
EXTT2=
EXTT3=
EXTT4=
EXTT5=
EXTT6=
EXTT7=
EXTT8=
EXTT9=
EXTT10=
PLAYORDER=
